<svg version="1.1" xmlns="http://www.w3.org/2000/svg" xmlns:xlink="http://www.w3.org/1999/xlink" width="469.18994140625" height="916"><defs/><g><g transform="translate(-198,-94) scale(1,1)"><rect fill="#ffffff" stroke="none" x="360" y="168" width="96" height="32"/></g><g transform="translate(-198,-94) scale(1,1)"><path fill="none" stroke="#000000" d="M 360 168 L 456 168 L 456 200 L 360 200 L 360 168 Z Z" stroke-miterlimit="10"/></g><g transform="translate(-198,-94) scale(1,1)"><g><path fill="none" stroke="none"/><text fill="#000000" stroke="none" font-family="Arial" font-size="13px" font-style="normal" font-weight="normal" text-decoration="none" x="384.878662109375" y="190.5">initialize</text></g></g><g transform="translate(-198,-94) scale(1,1)"><rect fill="#ffffff" stroke="none" x="360" y="232" width="104" height="58"/></g><g transform="translate(-198,-94) scale(1,1)"><path fill="none" stroke="#000000" d="M 360 232 L 464 232 L 464 290 L 360 290 L 360 232 Z Z" stroke-miterlimit="10"/></g><g transform="translate(-198,-94) scale(1,1)"><g><path fill="none" stroke="none"/><text fill="#000000" stroke="none" font-family="Arial" font-size="13px" font-style="normal" font-weight="normal" text-decoration="none" x="382.37548828125" y="254.5">waiting for</text><text fill="#000000" stroke="none" font-family="Arial" font-size="13px" font-style="normal" font-weight="normal" text-decoration="none" x="378.38916015625" y="267.5">phone scan</text><text fill="#000000" stroke="none" font-family="Arial" font-size="13px" font-style="normal" font-weight="normal" text-decoration="none" x="384.549560546875" y="280.5">from user</text></g></g><g transform="translate(-198,-94) scale(1,1)"><path fill="#ffffff" stroke="none" d="M 384.5 104 L 439.13720703125 104 Q 455.63720703125 104 455.63720703125 120.5 L 455.63720703125 119.5 Q 455.63720703125 136 439.13720703125 136 L 384.5 136 Q 368 136 368 119.5 L 368 120.5 Q 368 104 384.5 104 Z"/></g><g transform="translate(-198,-94) scale(1,1)"><path fill="none" stroke="#000000" d="M 384.5 104 L 439.13720703125 104 Q 455.63720703125 104 455.63720703125 120.5 L 455.63720703125 119.5 Q 455.63720703125 136 439.13720703125 136 L 384.5 136 Q 368 136 368 119.5 L 368 120.5 Q 368 104 384.5 104 Z" stroke-miterlimit="10"/></g><g transform="translate(-198,-94) scale(1,1)"><g><path fill="none" stroke="none"/><text fill="#000000" stroke="none" font-family="Arial" font-size="13px" font-style="normal" font-weight="normal" text-decoration="none" x="398.091796875" y="126.5">Start</text></g></g><g transform="translate(-198,-94) scale(1,1)"><path fill="none" stroke="#000000" d="M 411 136 L 411 168" stroke-miterlimit="10"/></g><g transform="translate(-198,-94) scale(1,1)"><path fill="#000000" stroke="none" d="M 406.790482243984 157.83732514237585 L 411 168 L 415.209517756016 157.83732514237585"/></g><g transform="translate(-198,-94) scale(1,1)"><path fill="none" stroke="#000000" d="M 406.790482243984 157.83732514237585 L 411 168 L 415.209517756016 157.83732514237585 L 406.790482243984 157.83732514237585" stroke-miterlimit="10"/></g><g transform="translate(-198,-94) scale(1,1)"><path fill="none" stroke="#000000" d="M 416 200 L 416 232" stroke-miterlimit="10"/></g><g transform="translate(-198,-94) scale(1,1)"><path fill="#000000" stroke="none" d="M 411.790482243984 221.83732514237585 L 416 232 L 420.209517756016 221.83732514237585"/></g><g transform="translate(-198,-94) scale(1,1)"><path fill="none" stroke="#000000" d="M 411.790482243984 221.83732514237585 L 416 232 L 420.209517756016 221.83732514237585 L 411.790482243984 221.83732514237585" stroke-miterlimit="10"/></g><g transform="translate(-198,-94) scale(1,1)"><path fill="#ffffff" stroke="none" d="M 344 353.5 L 412 328 L 480 353.5 L 412 379 L 344 353.5"/></g><g transform="translate(-198,-94) scale(1,1)"><path fill="none" stroke="#000000" d="M 344 353.5 L 412 328 L 480 353.5 L 412 379 L 344 353.5 L 344 353.5" stroke-miterlimit="10"/></g><g transform="translate(-198,-94) scale(1,1)"><g><path fill="none" stroke="none"/><text fill="#000000" stroke="none" font-family="Arial" font-size="13px" font-style="normal" font-weight="normal" text-decoration="none" x="378.763671875" y="360">is time out?</text></g></g><g transform="translate(-198,-94) scale(1,1)"><path fill="none" stroke="#000000" d="M 416 290 L 416 328" stroke-miterlimit="10"/></g><g transform="translate(-198,-94) scale(1,1)"><path fill="#000000" stroke="none" d="M 411.790482243984 317.83732514237585 L 416 328 L 420.209517756016 317.83732514237585"/></g><g transform="translate(-198,-94) scale(1,1)"><path fill="none" stroke="#000000" d="M 411.790482243984 317.83732514237585 L 416 328 L 420.209517756016 317.83732514237585 L 411.790482243984 317.83732514237585" stroke-miterlimit="10"/></g><g transform="translate(-198,-94) scale(1,1)"><rect fill="#ffffff" stroke="none" x="208" y="784" width="73.18994140625" height="32"/></g><g transform="translate(-198,-94) scale(1,1)"><path fill="none" stroke="#000000" d="M 208 784 L 281.18994140625 784 L 281.18994140625 816 L 208 816 L 208 784 Z Z" stroke-miterlimit="10"/></g><g transform="translate(-198,-94) scale(1,1)"><g><path fill="none" stroke="none"/><text fill="#000000" stroke="none" font-family="Arial" font-size="13px" font-style="normal" font-weight="normal" text-decoration="none" x="236.285888671875" y="806.5">fail</text></g></g><g transform="translate(-198,-94) scale(1,1)"><path fill="none" stroke="#000000" d="M 344 352 L 244 352 M 244 352 A 8 8 0 0 0 236 360 L 236 784" stroke-miterlimit="10"/></g><g transform="translate(-198,-94) scale(1,1)"><path fill="#000000" stroke="none" d="M 231.790482243984 773.8373251423759 L 236 784 L 240.209517756016 773.8373251423759"/></g><g transform="translate(-198,-94) scale(1,1)"><path fill="none" stroke="#000000" d="M 231.790482243984 773.8373251423759 L 236 784 L 240.209517756016 773.8373251423759 L 231.790482243984 773.8373251423759" stroke-miterlimit="10"/></g><g transform="translate(-198,-94) scale(1,1)"><g><path fill="none" stroke="none"/><text fill="#000000" stroke="none" font-family="Arial" font-size="13px" font-style="normal" font-weight="normal" text-decoration="none" x="285.823486328125" y="350.5">Yes</text></g></g><g transform="translate(-198,-94) scale(1,1)"><path fill="#ffffff" stroke="none" d="M 392.5 968 L 447.13720703125 968 Q 463.63720703125 968 463.63720703125 984.5 L 463.63720703125 983.5 Q 463.63720703125 1000 447.13720703125 1000 L 392.5 1000 Q 376 1000 376 983.5 L 376 984.5 Q 376 968 392.5 968 Z"/></g><g transform="translate(-198,-94) scale(1,1)"><path fill="none" stroke="#000000" d="M 392.5 968 L 447.13720703125 968 Q 463.63720703125 968 463.63720703125 984.5 L 463.63720703125 983.5 Q 463.63720703125 1000 447.13720703125 1000 L 392.5 1000 Q 376 1000 376 983.5 L 376 984.5 Q 376 968 392.5 968 Z" stroke-miterlimit="10"/></g><g transform="translate(-198,-94) scale(1,1)"><g><path fill="none" stroke="none"/><text fill="#000000" stroke="none" font-family="Arial" font-size="13px" font-style="normal" font-weight="normal" text-decoration="none" x="408.253173828125" y="990.5">End</text></g></g><g transform="translate(-198,-94) scale(1,1)"><rect fill="#ffffff" stroke="none" x="376" y="776" width="73.18994140625" height="45"/></g><g transform="translate(-198,-94) scale(1,1)"><path fill="none" stroke="#000000" d="M 376 776 L 449.18994140625 776 L 449.18994140625 821 L 376 821 L 376 776 Z Z" stroke-miterlimit="10"/></g><g transform="translate(-198,-94) scale(1,1)"><g><path fill="none" stroke="none"/><text fill="#000000" stroke="none" font-family="Arial" font-size="13px" font-style="normal" font-weight="normal" text-decoration="none" x="400.305908203125" y="798.5">deal</text><text fill="#000000" stroke="none" font-family="Arial" font-size="13px" font-style="normal" font-weight="normal" text-decoration="none" x="387.66455078125" y="811.5">payment</text></g></g><g transform="translate(-198,-94) scale(1,1)"><path fill="#ffffff" stroke="none" d="M 312 460 L 412 424 L 512 460 L 412 496 L 312 460"/></g><g transform="translate(-198,-94) scale(1,1)"><path fill="none" stroke="#000000" d="M 312 460 L 412 424 L 512 460 L 412 496 L 312 460 L 312 460" stroke-miterlimit="10"/></g><g transform="translate(-198,-94) scale(1,1)"><g><path fill="none" stroke="none"/><text fill="#000000" stroke="none" font-family="Arial" font-size="13px" font-style="normal" font-weight="normal" text-decoration="none" x="367.182373046875" y="460">does the phone</text><text fill="#000000" stroke="none" font-family="Arial" font-size="13px" font-style="normal" font-weight="normal" text-decoration="none" x="394.655029296875" y="473">scan?</text></g></g><g transform="translate(-198,-94) scale(1,1)"><path fill="none" stroke="#000000" d="M 412 379 L 412 424" stroke-miterlimit="10"/></g><g transform="translate(-198,-94) scale(1,1)"><path fill="#000000" stroke="none" d="M 407.790482243984 413.83732514237585 L 412 424 L 416.209517756016 413.83732514237585"/></g><g transform="translate(-198,-94) scale(1,1)"><path fill="none" stroke="#000000" d="M 407.790482243984 413.83732514237585 L 412 424 L 416.209517756016 413.83732514237585 L 407.790482243984 413.83732514237585" stroke-miterlimit="10"/></g><g transform="translate(-198,-94) scale(1,1)"><g><path fill="none" stroke="none"/><text fill="#000000" stroke="none" font-family="Arial" font-size="13px" font-style="normal" font-weight="normal" text-decoration="none" x="417.5" y="406.5">No</text></g></g><g transform="translate(-198,-94) scale(1,1)"><rect fill="#ffffff" stroke="none" x="584" y="440" width="73.18994140625" height="32"/></g><g transform="translate(-198,-94) scale(1,1)"><path fill="none" stroke="#000000" d="M 584 440 L 657.18994140625 440 L 657.18994140625 472 L 584 472 L 584 440 Z Z" stroke-miterlimit="10"/></g><g transform="translate(-198,-94) scale(1,1)"><g><path fill="none" stroke="none"/><text fill="#000000" stroke="none" font-family="Arial" font-size="13px" font-style="normal" font-weight="normal" text-decoration="none" x="603.970458984375" y="462.5">Sleep</text></g></g><g transform="translate(-198,-94) scale(1,1)"><path fill="none" stroke="#000000" d="M 512 456 L 584 456" stroke-miterlimit="10"/></g><g transform="translate(-198,-94) scale(1,1)"><path fill="#000000" stroke="none" d="M 573.8373251423759 460.209517756016 L 584 456 L 573.8373251423758 451.790482243984"/></g><g transform="translate(-198,-94) scale(1,1)"><path fill="none" stroke="#000000" d="M 573.8373251423759 460.209517756016 L 584 456 L 573.8373251423758 451.790482243984 L 573.8373251423759 460.209517756016" stroke-miterlimit="10"/></g><g transform="translate(-198,-94) scale(1,1)"><g><path fill="none" stroke="none"/><text fill="#000000" stroke="none" font-family="Arial" font-size="13px" font-style="normal" font-weight="normal" text-decoration="none" x="539.5" y="447.5">No</text></g></g><g transform="translate(-198,-94) scale(1,1)"><path fill="none" stroke="#000000" d="M 600 440 L 600 360 M 600 360 A 8 8 0 0 0 592 352 L 480 352" stroke-miterlimit="10"/></g><g transform="translate(-198,-94) scale(1,1)"><path fill="#000000" stroke="none" d="M 490.16267485762415 347.790482243984 L 480 352 L 490.16267485762415 356.209517756016"/></g><g transform="translate(-198,-94) scale(1,1)"><path fill="none" stroke="#000000" d="M 490.16267485762415 347.790482243984 L 480 352 L 490.16267485762415 356.209517756016 L 490.16267485762415 347.790482243984" stroke-miterlimit="10"/></g><g transform="translate(-198,-94) scale(1,1)"><path fill="#ffffff" stroke="none" d="M 336 580 L 412 552 L 488 580 L 412 608 L 336 580"/></g><g transform="translate(-198,-94) scale(1,1)"><path fill="none" stroke="#000000" d="M 336 580 L 412 552 L 488 580 L 412 608 L 336 580 L 336 580" stroke-miterlimit="10"/></g><g transform="translate(-198,-94) scale(1,1)"><g><path fill="none" stroke="none"/><text fill="#000000" stroke="none" font-family="Arial" font-size="13px" font-style="normal" font-weight="normal" text-decoration="none" x="378.763671875" y="586.5">is time out?</text></g></g><g transform="translate(-198,-94) scale(1,1)"><path fill="none" stroke="#000000" d="M 411 496 L 411 552" stroke-miterlimit="10"/></g><g transform="translate(-198,-94) scale(1,1)"><path fill="#000000" stroke="none" d="M 406.790482243984 541.8373251423759 L 411 552 L 415.209517756016 541.8373251423759"/></g><g transform="translate(-198,-94) scale(1,1)"><path fill="none" stroke="#000000" d="M 406.790482243984 541.8373251423759 L 411 552 L 415.209517756016 541.8373251423759 L 406.790482243984 541.8373251423759" stroke-miterlimit="10"/></g><g transform="translate(-198,-94) scale(1,1)"><g><path fill="none" stroke="none"/><text fill="#000000" stroke="none" font-family="Arial" font-size="13px" font-style="normal" font-weight="normal" text-decoration="none" x="414.5" y="529.5">Yes</text></g></g><g transform="translate(-198,-94) scale(1,1)"><path fill="none" stroke="#000000" d="M 336 576 L 244 576 M 244 576 A 8 8 0 0 0 236 584 L 236 784" stroke-miterlimit="10"/></g><g transform="translate(-198,-94) scale(1,1)"><path fill="#000000" stroke="none" d="M 231.790482243984 773.8373251423759 L 236 784 L 240.209517756016 773.8373251423759"/></g><g transform="translate(-198,-94) scale(1,1)"><path fill="none" stroke="#000000" d="M 231.790482243984 773.8373251423759 L 236 784 L 240.209517756016 773.8373251423759 L 231.790482243984 773.8373251423759" stroke-miterlimit="10"/></g><g transform="translate(-198,-94) scale(1,1)"><g><path fill="none" stroke="none"/><text fill="#000000" stroke="none" font-family="Arial" font-size="13px" font-style="normal" font-weight="normal" text-decoration="none" x="295.5" y="572.5">Yes</text></g></g><g transform="translate(-198,-94) scale(1,1)"><path fill="#ffffff" stroke="none" d="M 320 694.5 L 416 656 L 512 694.5 L 416 733 L 320 694.5"/></g><g transform="translate(-198,-94) scale(1,1)"><path fill="none" stroke="#000000" d="M 320 694.5 L 416 656 L 512 694.5 L 416 733 L 320 694.5 L 320 694.5" stroke-miterlimit="10"/></g><g transform="translate(-198,-94) scale(1,1)"><g><path fill="none" stroke="none"/><text fill="#000000" stroke="none" font-family="Arial" font-size="13px" font-style="normal" font-weight="normal" text-decoration="none" x="375.168701171875" y="688">does payment</text><text fill="#000000" stroke="none" font-family="Arial" font-size="13px" font-style="normal" font-weight="normal" text-decoration="none" x="380.595947265625" y="701">confirmation</text><text fill="#000000" stroke="none" font-family="Arial" font-size="13px" font-style="normal" font-weight="normal" text-decoration="none" x="396.1318359375" y="714">arrive?</text></g></g><g transform="translate(-198,-94) scale(1,1)"><path fill="none" stroke="#000000" d="M 413 608 L 413 656" stroke-miterlimit="10"/></g><g transform="translate(-198,-94) scale(1,1)"><path fill="#000000" stroke="none" d="M 408.790482243984 645.8373251423759 L 413 656 L 417.209517756016 645.8373251423759"/></g><g transform="translate(-198,-94) scale(1,1)"><path fill="none" stroke="#000000" d="M 408.790482243984 645.8373251423759 L 413 656 L 417.209517756016 645.8373251423759 L 408.790482243984 645.8373251423759" stroke-miterlimit="10"/></g><g transform="translate(-198,-94) scale(1,1)"><g><path fill="none" stroke="none"/><text fill="#000000" stroke="none" font-family="Arial" font-size="13px" font-style="normal" font-weight="normal" text-decoration="none" x="418.5" y="637.5">No</text></g></g><g transform="translate(-198,-94) scale(1,1)"><rect fill="#ffffff" stroke="none" x="576" y="680" width="73.18994140625" height="32"/></g><g transform="translate(-198,-94) scale(1,1)"><path fill="none" stroke="#000000" d="M 576 680 L 649.18994140625 680 L 649.18994140625 712 L 576 712 L 576 680 Z Z" stroke-miterlimit="10"/></g><g transform="translate(-198,-94) scale(1,1)"><g><path fill="none" stroke="none"/><text fill="#000000" stroke="none" font-family="Arial" font-size="13px" font-style="normal" font-weight="normal" text-decoration="none" x="595.970458984375" y="702.5">Sleep</text></g></g><g transform="translate(-198,-94) scale(1,1)"><path fill="none" stroke="#000000" d="M 592 680 L 592 584 M 592 584 A 8 8 0 0 0 584 576 L 488 576" stroke-miterlimit="10"/></g><g transform="translate(-198,-94) scale(1,1)"><path fill="#000000" stroke="none" d="M 498.16267485762415 571.790482243984 L 488 576 L 498.16267485762415 580.209517756016"/></g><g transform="translate(-198,-94) scale(1,1)"><path fill="none" stroke="#000000" d="M 498.16267485762415 571.790482243984 L 488 576 L 498.16267485762415 580.209517756016 L 498.16267485762415 571.790482243984" stroke-miterlimit="10"/></g><g transform="translate(-198,-94) scale(1,1)"><path fill="none" stroke="#000000" d="M 512 696 L 576 696" stroke-miterlimit="10"/></g><g transform="translate(-198,-94) scale(1,1)"><path fill="#000000" stroke="none" d="M 565.8373251423759 700.209517756016 L 576 696 L 565.8373251423758 691.790482243984"/></g><g transform="translate(-198,-94) scale(1,1)"><path fill="none" stroke="#000000" d="M 565.8373251423759 700.209517756016 L 576 696 L 565.8373251423758 691.790482243984 L 565.8373251423759 700.209517756016" stroke-miterlimit="10"/></g><g transform="translate(-198,-94) scale(1,1)"><g><path fill="none" stroke="none"/><text fill="#000000" stroke="none" font-family="Arial" font-size="13px" font-style="normal" font-weight="normal" text-decoration="none" x="535.5" y="687.5">No</text></g></g><g transform="translate(-198,-94) scale(1,1)"><path fill="none" stroke="#000000" d="M 415 733 L 415 776" stroke-miterlimit="10"/></g><g transform="translate(-198,-94) scale(1,1)"><path fill="#000000" stroke="none" d="M 410.790482243984 765.8373251423759 L 415 776 L 419.209517756016 765.8373251423759"/></g><g transform="translate(-198,-94) scale(1,1)"><path fill="none" stroke="#000000" d="M 410.790482243984 765.8373251423759 L 415 776 L 419.209517756016 765.8373251423759 L 410.790482243984 765.8373251423759" stroke-miterlimit="10"/></g><g transform="translate(-198,-94) scale(1,1)"><g><path fill="none" stroke="none"/><text fill="#000000" stroke="none" font-family="Arial" font-size="13px" font-style="normal" font-weight="normal" text-decoration="none" x="418.5" y="759.5">Yes</text></g></g><g transform="translate(-198,-94) scale(1,1)"><path fill="none" stroke="#000000" d="M 255 816 L 255 912 M 255 912 A 8 8 0 0 0 263 920 L 411 920 M 411 920 A 8 8 0 0 1 419 928 L 419 968" stroke-miterlimit="10"/></g><g transform="translate(-198,-94) scale(1,1)"><path fill="#000000" stroke="none" d="M 414.790482243984 957.8373251423759 L 419 968 L 423.209517756016 957.8373251423759"/></g><g transform="translate(-198,-94) scale(1,1)"><path fill="none" stroke="#000000" d="M 414.790482243984 957.8373251423759 L 419 968 L 423.209517756016 957.8373251423759 L 414.790482243984 957.8373251423759" stroke-miterlimit="10"/></g><g transform="translate(-198,-94) scale(1,1)"><path fill="none" stroke="#000000" d="M 419 821 L 419 968" stroke-miterlimit="10"/></g><g transform="translate(-198,-94) scale(1,1)"><path fill="#000000" stroke="none" d="M 414.790482243984 957.8373251423759 L 419 968 L 423.209517756016 957.8373251423759"/></g><g transform="translate(-198,-94) scale(1,1)"><path fill="none" stroke="#000000" d="M 414.790482243984 957.8373251423759 L 419 968 L 423.209517756016 957.8373251423759 L 414.790482243984 957.8373251423759" stroke-miterlimit="10"/></g></g></svg>